<svg width="60" height="60" viewBox="0 0 60 60" fill="none" xmlns="http://www.w3.org/2000/svg">
<g clip-path="url(#clip0_108_49)">
<path d="M36.8856 17.2881H23.1144C22.3493 17.2881 21.5916 17.4388 20.8848 17.7316C20.1779 18.0244 19.5356 18.4535 18.9945 18.9945C18.4535 19.5356 18.0244 20.1779 17.7316 20.8848C17.4388 21.5916 17.2881 22.3493 17.2881 23.1144V36.8856C17.2881 38.4308 17.9019 39.9128 18.9946 41.0054C19.5356 41.5464 20.1779 41.9756 20.8848 42.2684C21.5917 42.5612 22.3493 42.7119 23.1144 42.7119H36.8856C38.4308 42.7119 39.9127 42.098 41.0053 41.0054C42.098 39.9127 42.7118 38.4308 42.7118 36.8856V23.1144C42.7118 22.3493 42.5611 21.5917 42.2683 20.8848C41.9756 20.1779 41.5464 19.5356 41.0054 18.9946C40.4644 18.4536 39.8221 18.0244 39.1152 17.7316C38.4083 17.4388 37.6507 17.2881 36.8856 17.2881ZM30 38.0146C28.4149 38.0146 26.8653 37.5445 25.5473 36.6639C24.2294 35.7832 23.2021 34.5315 22.5955 33.067C21.9889 31.6026 21.8302 29.9911 22.1394 28.4364C22.4487 26.8818 23.212 25.4537 24.3328 24.3328C25.4537 23.212 26.8818 22.4487 28.4364 22.1394C29.9911 21.8302 31.6026 21.9889 33.067 22.5955C34.5315 23.2021 35.7832 24.2294 36.6639 25.5473C37.5445 26.8653 38.0146 28.4149 38.0146 30C38.0146 31.0525 37.8073 32.0947 37.4045 33.067C37.0017 34.0394 36.4114 34.9229 35.6672 35.6672C34.9229 36.4114 34.0394 37.0017 33.067 37.4045C32.0947 37.8073 31.0525 38.0146 30 38.0146ZM38.3487 23.6227C37.9715 23.6227 37.6029 23.5109 37.2893 23.3014C36.9757 23.0919 36.7313 22.7941 36.587 22.4457C36.4426 22.0973 36.4049 21.7139 36.4784 21.344C36.552 20.9741 36.7336 20.6343 37.0002 20.3677C37.2669 20.101 37.6066 19.9194 37.9765 19.8458C38.3464 19.7722 38.7298 19.81 39.0782 19.9543C39.4266 20.0986 39.7244 20.343 39.934 20.6565C40.1435 20.9701 40.2553 21.3388 40.2553 21.7159C40.2553 22.2216 40.0544 22.7066 39.6969 23.0641C39.3393 23.4217 38.8544 23.6226 38.3487 23.6227Z" fill="#72589A"/>
<path d="M30.0001 24.7904C28.9697 24.7904 27.9625 25.0959 27.1058 25.6684C26.2491 26.2408 25.5814 27.0544 25.1871 28.0064C24.7928 28.9583 24.6896 30.0058 24.8906 31.0163C25.0916 32.0269 25.5878 32.9551 26.3164 33.6837C27.0449 34.4123 27.9732 34.9084 28.9838 35.1094C29.9943 35.3105 31.0418 35.2073 31.9937 34.813C32.9456 34.4187 33.7593 33.751 34.3317 32.8943C34.9041 32.0375 35.2097 31.0303 35.2097 30C35.2097 28.6183 34.6608 27.2932 33.6838 26.3163C32.7068 25.3393 31.3818 24.7904 30.0001 24.7904Z" fill="#72589A"/>
<path d="M30 0C13.4314 0 0 13.4314 0 30C0 46.5686 13.4314 60 30 60C46.5686 60 60 46.5686 60 30C60 13.4314 46.5686 0 30 0ZM45.625 36.6211C45.6249 39.009 44.6762 41.2992 42.9877 42.9877C41.2992 44.6762 39.009 45.6249 36.6211 45.625H23.3789C20.991 45.6249 18.7008 44.6762 17.0123 42.9877C15.3237 41.2992 14.375 39.009 14.3749 36.6211V23.3789C14.375 20.9909 15.3237 18.7008 17.0122 17.0123C18.7008 15.3237 20.9909 14.3751 23.3789 14.375H36.6211C39.009 14.3751 41.2992 15.3238 42.9877 17.0123C44.6762 18.7008 45.6249 20.991 45.625 23.3789V36.6211Z" fill="#72589A"/>
</g>
<defs>
<clipPath id="clip0_108_49">
<rect width="60" height="60" fill="white"/>
</clipPath>
</defs>
</svg>
