<svg width="60" height="60" viewBox="0 0 60 60" fill="none" xmlns="http://www.w3.org/2000/svg">
<g clip-path="url(#clip0_108_53)">
<path d="M30 0C13.4314 0 0 13.4314 0 30C0 46.5686 13.4314 60 30 60C46.5686 60 60 46.5686 60 30C60 13.4314 46.5686 0 30 0ZM21.4963 44.8438H14.8103V23.8656H21.4963V44.8438ZM18.1533 21.1181C17.4093 21.1181 16.682 20.8975 16.0634 20.4842C15.4448 20.0708 14.9626 19.4833 14.6779 18.796C14.3932 18.1086 14.3187 17.3522 14.4638 16.6225C14.609 15.8928 14.9673 15.2226 15.4933 14.6965C16.0194 14.1704 16.6897 13.8121 17.4194 13.667C18.1491 13.5218 18.9055 13.5963 19.5928 13.881C20.2802 14.1657 20.8677 14.6479 21.281 15.2665C21.6944 15.8851 21.915 16.6124 21.915 17.3564C21.915 18.3541 21.5187 19.3109 20.8132 20.0163C20.1078 20.7218 19.151 21.1181 18.1533 21.1181ZM45.6094 44.8438H39.0469V33.3732C39.0469 32.7905 39.1389 28.9261 35.8571 28.9261C35.274 28.9116 34.6959 29.038 34.172 29.2945C33.6481 29.5511 33.1938 29.9303 32.8477 30.3998C32.2449 31.204 31.923 32.1839 31.9315 33.1889V44.8433H25.377V23.8656H31.6132V26.8098C33.1058 24.5198 34.9869 23.6816 36.8372 23.3442C40.1216 22.7454 45.6088 24.7448 45.6088 30.7153L45.6094 44.8438Z" fill="#72589A"/>
</g>
<defs>
<clipPath id="clip0_108_53">
<rect width="60" height="60" fill="white"/>
</clipPath>
</defs>
</svg>
