<svg width="60" height="60" viewBox="0 0 60 60" fill="none" xmlns="http://www.w3.org/2000/svg">
<path d="M53.5716 44.6607C53.5716 45.2634 53.46 46.0502 53.2367 47.0212C53.0135 47.9922 52.7792 48.7567 52.5336 49.3147C52.0649 50.4308 50.7033 51.6139 48.4488 52.8639C46.3506 54.0022 44.2747 54.5714 42.2211 54.5714C41.6184 54.5714 41.0325 54.5324 40.4633 54.4543C39.8941 54.3761 39.2524 54.2366 38.5381 54.0357C37.8238 53.8348 37.2937 53.673 36.9477 53.5502C36.6017 53.4275 35.9823 53.1987 35.0894 52.8639C34.1966 52.529 33.6497 52.3281 33.4488 52.2612C31.2613 51.4799 29.3082 50.5536 27.5894 49.4822C24.7323 47.7188 21.7803 45.3136 18.7334 42.2668C15.6865 39.2199 13.2814 36.2679 11.518 33.4107C10.4466 31.692 9.52023 29.7389 8.73898 27.5514C8.67201 27.3505 8.47112 26.8036 8.1363 25.9107C7.80148 25.0179 7.57268 24.3985 7.44992 24.0525C7.32715 23.7065 7.16532 23.1764 6.96443 22.4621C6.76353 21.7478 6.62402 21.106 6.5459 20.5368C6.46777 19.9676 6.42871 19.3817 6.42871 18.779C6.42871 16.7255 6.99791 14.6496 8.1363 12.5514C9.3863 10.2969 10.5693 8.93529 11.6854 8.46654C12.2434 8.221 13.008 7.98662 13.9789 7.76341C14.9499 7.5402 15.7367 7.42859 16.3394 7.42859C16.6519 7.42859 16.8863 7.46207 17.0425 7.52904C17.4443 7.66296 18.0359 8.51118 18.8171 10.0737C19.0626 10.4978 19.3975 11.1005 19.8216 11.8817C20.2457 12.663 20.6363 13.3717 20.9934 14.0078C21.3506 14.644 21.6966 15.2411 22.0314 15.7991C22.0984 15.8884 22.2937 16.1674 22.6173 16.6362C22.941 17.1049 23.1809 17.5011 23.3372 17.8248C23.4934 18.1485 23.5716 18.4665 23.5716 18.779C23.5716 19.2255 23.2535 19.7835 22.6173 20.4531C21.9812 21.1228 21.2892 21.7366 20.5414 22.2947C19.7937 22.8527 19.1017 23.4442 18.4655 24.0692C17.8294 24.6942 17.5113 25.2076 17.5113 25.6094C17.5113 25.8103 17.5671 26.0614 17.6787 26.3627C17.7903 26.6641 17.8852 26.8929 17.9633 27.0491C18.0414 27.2054 18.1977 27.4732 18.4321 27.8527C18.6664 28.2322 18.7948 28.4442 18.8171 28.4889C20.5135 31.5469 22.4555 34.1697 24.643 36.3572C26.8305 38.5447 29.4533 40.4866 32.5113 42.183C32.5559 42.2054 32.768 42.3337 33.1475 42.5681C33.5269 42.8025 33.7948 42.9587 33.951 43.0368C34.1073 43.115 34.3361 43.2098 34.6374 43.3214C34.9388 43.433 35.1899 43.4889 35.3908 43.4889C35.7925 43.4889 36.3059 43.1708 36.9309 42.5346C37.5559 41.8985 38.1475 41.2065 38.7055 40.4587C39.2635 39.711 39.8774 39.019 40.547 38.3828C41.2167 37.7467 41.7747 37.4286 42.2211 37.4286C42.5336 37.4286 42.8517 37.5067 43.1754 37.663C43.499 37.8192 43.8952 38.0592 44.364 38.3828C44.8327 38.7065 45.1117 38.9018 45.201 38.9688C45.7591 39.3036 46.3562 39.6496 46.9923 40.0067C47.6285 40.3639 48.3372 40.7545 49.1184 41.1786C49.8997 41.6027 50.5024 41.9375 50.9265 42.183C52.489 42.9643 53.3372 43.5558 53.4711 43.9576C53.5381 44.1139 53.5716 44.3482 53.5716 44.6607Z" fill="#72589A"/>
</svg>
